<svg xmlns="http://www.w3.org/2000/svg" width="2523.599" height="2342.9" viewBox="0 0 2523.599 2342.9">
  <g id="Fundo" transform="translate(507.084 596.044)">
    <g id="Retângulo_5" data-name="Retângulo 5" transform="translate(863)" fill="#6c9f64" stroke="#707070" stroke-width="1">
      <rect width="1057" height="1080" stroke="none"/>
      <rect x="0.5" y="0.5" width="1056" height="1079" fill="none"/>
    </g>
    <g id="Caminho_5" data-name="Caminho 5" transform="matrix(0.819, 0.574, -0.574, 0.819, 1225.154, 396.429)" fill="#42a626">
      <path d="M 5.040748596191406 824.71240234375 L 0.5028850436210632 0.5113968849182129 L 866.8838500976563 19.92138671875 L 965.3765258789063 160.5834503173828 L 552.0792236328125 449.977294921875 L 5.040748596191406 824.71240234375 Z" stroke="none"/>
      <path d="M 1.005615234375 1.02276611328125 L 5.53546142578125 823.7673950195313 L 551.79248046875 449.5676574707031 L 964.6800537109375 160.4606323242188 L 866.6195068359375 20.41546630859375 L 1.005615234375 1.02276611328125 M -6.103515625e-05 0 L 867.148193359375 19.42706298828125 L 966.07275390625 160.7062377929688 L 552.3660888671875 450.3868103027344 L 4.54583740234375 825.6574096679688 L -6.103515625e-05 0 Z" stroke="none" fill="#707070"/>
    </g>
    <g id="Caminho_3" data-name="Caminho 3" transform="matrix(0.819, 0.574, -0.574, 0.819, 246.914, -715.514)" fill="#5bd948">
      <path d="M 1549.168212890625 1096.309936523438 L 209.4457092285156 724.47119140625 L 1234.514892578125 6.710025310516357 L 1582.414306640625 0.5094286799430847 L 1549.168212890625 1096.309936523438 Z" stroke="none"/>
      <path d="M 1581.898803710938 1.0184326171875 L 1234.6767578125 7.2071533203125 L 210.6005859375 724.27294921875 L 1548.687866210938 1095.657592773438 L 1581.898803710938 1.0184326171875 M 1582.930053710938 -0.0001220703125 L 1549.648681640625 1096.962036132813 L 208.290771484375 724.6695556640625 L 1234.353393554688 6.2127685546875 L 1582.930053710938 -0.0001220703125 Z" stroke="none" fill="#707070"/>
    </g>
    <g id="Caminho_4" data-name="Caminho 4" transform="matrix(0.819, 0.574, -0.574, 0.819, -144.546, -114.091)" fill="#3b8c2e">
      <path d="M 805.6444702148438 893.2764282226563 L 584.672119140625 577.6951293945313 L 184.0862121582031 9.952566146850586 L 267.4138793945313 -48.39413452148438 L 1966.3037109375 80.57408142089844 L 805.6444702148438 893.2764282226563 Z" stroke="none"/>
      <path d="M 267.553955078125 -47.88214111328125 L 184.7840576171875 10.07421875 L 585.081787109375 577.408447265625 L 805.767333984375 892.5799560546875 L 1964.870971679688 80.96685791015625 L 267.553955078125 -47.88214111328125 M 267.2733154296875 -48.9063720703125 L 1967.735961914063 80.18145751953125 L 805.5218505859375 893.9725341796875 L 584.2626953125 577.98193359375 L 183.3883056640625 9.830810546875 L 267.2733154296875 -48.9063720703125 Z" stroke="none" fill="#707070"/>
    </g>
  </g>
</svg>
