<svg xmlns="http://www.w3.org/2000/svg" width="2519.922" height="2332.993" viewBox="0 0 2519.922 2332.993"><g transform="translate(507.907 584.963)"><g transform="translate(863)" fill="#6c9f64" stroke="#707070" stroke-width="1"><rect width="1057" height="1080" stroke="none"/><rect x="0.5" y="0.5" width="1056" height="1079" fill="none"/></g><g transform="matrix(0.819, 0.574, -0.574, 0.819, 1225.154, 396.429)" fill="#42a626"><path d="M 5.04066801071167 824.71240234375 L 0.5028082728385925 0.5121466517448425 L 859.438720703125 20.97997856140137 L 959.8834228515625 164.4298095703125 L 552.0791625976563 449.977294921875 L 5.04066801071167 824.71240234375 Z" stroke="none"/><path d="M 1.005615234375 1.0242919921875 L 5.53546142578125 823.7673950195313 L 551.79248046875 449.5676574707031 L 959.18701171875 164.3070068359375 L 859.1741333007813 21.47381591796875 L 1.005615234375 1.0242919921875 M 0 0 L 859.7032470703125 20.48614501953125 L 960.5797119140625 164.5526123046875 L 552.365966796875 450.3868103027344 L 4.54583740234375 825.6574096679688 L 0 0 Z" stroke="none" fill="#707070"/></g><g transform="matrix(0.819, 0.574, -0.574, 0.819, 224.914, -713.514)" fill="#5bd948"><path d="M 1549.168579101563 1096.302856445313 L 225.2661285400391 713.3936157226563 L 1234.514770507813 6.710025310516357 L 1582.414306640625 0.5094286799430847 L 1549.168579101563 1096.302856445313 Z" stroke="none"/><path d="M 1581.898681640625 1.0184326171875 L 1234.676513671875 7.2071533203125 L 226.4093017578125 713.2037353515625 L 1548.6884765625 1095.643310546875 L 1581.898681640625 1.0184326171875 M 1582.930053710938 -0.0001220703125 L 1549.648803710938 1096.962036132813 L 224.123291015625 713.5836181640625 L 1234.353271484375 6.2127685546875 L 1582.930053710938 -0.0001220703125 Z" stroke="none" fill="#707070"/></g><g transform="matrix(0.819, 0.574, -0.574, 0.819, -144.546, -114.091)" fill="#3b8c2e"><path d="M 803.5975341796875 894.7096557617188 L 184.0847473144531 9.953526496887207 L 267.4138793945313 -48.39419937133789 L 1966.3037109375 80.57401275634766 L 803.5975341796875 894.7096557617188 Z" stroke="none"/><path d="M 267.553955078125 -47.88201904296875 L 184.781005859375 10.0762939453125 L 803.72021484375 894.0133666992188 L 1964.870971679688 80.966796875 L 267.553955078125 -47.88201904296875 M 267.2733154296875 -48.90618896484375 L 1967.735961914063 80.181396484375 L 803.474609375 895.4059448242188 L 183.3883056640625 9.83074951171875 L 267.2733154296875 -48.90618896484375 Z" stroke="none" fill="#707070"/></g></g></svg>