<svg xmlns="http://www.w3.org/2000/svg" width="40.001" height="40" viewBox="0 0 40.001 40">
  <g id="Icone_Klaza" data-name="Icone Klaza" transform="translate(619 -7)">
    <path id="Icon_awesome-book-reader" data-name="Icon awesome-book-reader" d="M27.5,7.5A7.5,7.5,0,1,0,20,15,7.5,7.5,0,0,0,27.5,7.5ZM18.249,18.836C13.614,16,6.106,15.219,2.328,15A2.162,2.162,0,0,0,0,17.12V34.527A2.149,2.149,0,0,0,2.07,36.64c3.411.179,10.312.834,15.081,3.237a1.088,1.088,0,0,0,1.6-.927V19.731a1.039,1.039,0,0,0-.5-.9ZM37.672,15c-3.777.214-11.286.995-15.92,3.832a1.059,1.059,0,0,0-.5.909v19.2a1.091,1.091,0,0,0,1.6.93c4.769-2.4,11.666-3.055,15.076-3.234A2.15,2.15,0,0,0,40,34.528V17.12A2.163,2.163,0,0,0,37.672,15Z" transform="translate(-619 7)" fill="#3b8c2e"/>
    <path id="Icon_awesome-book-reader-2" data-name="Icon awesome-book-reader" d="M37.672,15c-3.777.214-11.286.995-15.92,3.832a1.059,1.059,0,0,0-.5.909v19.2a1.091,1.091,0,0,0,1.6.93c4.769-2.4,11.666-3.055,15.076-3.234A2.15,2.15,0,0,0,40,34.528V17.12A2.163,2.163,0,0,0,37.672,15Z" transform="translate(-619 7)" fill="#5bd948"/>
    <path id="Icon_awesome-book-reader-3" data-name="Icon awesome-book-reader" d="M27.5,7.5A7.5,7.5,0,1,0,20,15,7.5,7.5,0,0,0,27.5,7.5ZM2.07,36.64C5.48,36.819.905,36.58,2.07,36.64Zm20.786,3.237Z" transform="translate(-619 7)" fill="#bf0f1e"/>
  </g>
</svg>
